<svg width="103" height="103" viewBox="0 0 103 103" fill="none" xmlns="http://www.w3.org/2000/svg">
<path d="M87.55 0H15.45C11.3524 0 7.42264 1.62774 4.5252 4.52514C1.62776 7.42253 0 11.3522 0 15.4498V66.9491C0 71.0466 1.62776 74.9763 4.5252 77.8737C7.42264 80.7711 11.3524 82.3988 15.45 82.3988H75.1385L94.1935 101.505C94.6747 101.982 95.2454 102.36 95.8729 102.616C96.5003 102.873 97.1722 103.002 97.85 102.999C98.5256 103.016 99.1958 102.875 99.807 102.587C100.747 102.2 101.553 101.544 102.121 100.701C102.689 99.8578 102.995 98.8654 103 97.8486V15.4498C103 11.3522 101.372 7.42253 98.4748 4.52514C95.5774 1.62774 91.6476 0 87.55 0ZM92.7 85.4373L80.9065 73.5925C80.4253 73.1152 79.8546 72.7375 79.2271 72.4813C78.5997 72.225 77.9278 72.0951 77.25 72.099H15.45C14.0841 72.099 12.7742 71.5564 11.8084 70.5906C10.8426 69.6248 10.3 68.3149 10.3 66.9491V15.4498C10.3 14.0839 10.8426 12.774 11.8084 11.8082C12.7742 10.8424 14.0841 10.2999 15.45 10.2999H87.55C88.9159 10.2999 90.2258 10.8424 91.1916 11.8082C92.1574 12.774 92.7 14.0839 92.7 15.4498V85.4373ZM51.5 51.4993C50.4814 51.4993 49.4857 51.8013 48.6388 52.3672C47.7919 52.9331 47.1318 53.7374 46.742 54.6784C46.3522 55.6194 46.2502 56.6549 46.449 57.6539C46.6477 58.6529 47.1382 59.5705 47.8584 60.2908C48.5786 61.011 49.4963 61.5015 50.4953 61.7002C51.4943 61.8989 52.5298 61.7969 53.4708 61.4071C54.4119 61.0173 55.2162 60.3573 55.7821 59.5104C56.348 58.6635 56.65 57.6678 56.65 56.6492C56.65 55.2834 56.1074 53.9735 55.1416 53.0077C54.1758 52.0419 52.8659 51.4993 51.5 51.4993ZM51.5 20.5997C50.1341 20.5997 48.8242 21.1423 47.8584 22.1081C46.8926 23.0739 46.35 24.3838 46.35 25.7496V41.1994C46.35 42.5653 46.8926 43.8752 47.8584 44.841C48.8242 45.8068 50.1341 46.3494 51.5 46.3494C52.8659 46.3494 54.1758 45.8068 55.1416 44.841C56.1074 43.8752 56.65 42.5653 56.65 41.1994V25.7496C56.65 24.3838 56.1074 23.0739 55.1416 22.1081C54.1758 21.1423 52.8659 20.5997 51.5 20.5997Z" fill="#BFFF8D"/>
</svg>
